# xmcd
#
# Track frame offsets:
#	182
#	31882
#	53627
#	71640
#	93167
#	104647
#	132990
#	166967
#	195652
#	214472
#	242587
#	267845
#
# Disc length: 3859 seconds
#
# Revision: 2
# Processed by: cddbd v1.5.2PL0 Copyright (c) Steve Scherf et al.
# Submitted via: EasyCDDAExtractor 11.1.0.1
#
DISCID=aa0f110c
DTITLE=Lightnin' Hopkins - Long Way From Texas
DYEAR=1960
DGENRE=Blues
TTITLE0=Mighty Crazy
TTITLE1=Your Own Fault, Baby, To Treat Me The Way You Do
TTITLE2=I've Had My Fun If I Don't Get Well No More
TTITLE3=Lightnin's Piano Boogie
TTITLE4=Wonder Why
TTITLE5=Mister Charlie
TTITLE6=Take It Easy
TTITLE7=Black Cat Blues
TTITLE8=The Troubles Blues
TTITLE9=Long Way From Texas
TTITLE10=Whiskey, Whiskey
TTITLE11=Suicide Blues
EXTD=
EXTT0=
EXTT1=
EXTT2=
EXTT3=
EXTT4=
EXTT5=
EXTT6=
EXTT7=
EXTT8=
EXTT9=
EXTT10=
EXTT11=
PLAYORDER=
